<svg width="72" height="44" viewBox="0 0 72 44" fill="none" xmlns="http://www.w3.org/2000/svg">
<path fill-rule="evenodd" clip-rule="evenodd" d="M6.76077 42.2036C6.65013 42.0458 6.54796 41.8696 6.45478 41.6737C6.32773 41.4185 6.21074 41.1676 6.10433 40.9204C5.99846 40.6737 5.89205 40.446 5.78617 40.2375C5.67977 40.0289 5.55907 39.8505 5.42302 39.7012C5.28696 39.5519 5.12179 39.4444 4.92645 39.3762C5.49501 39.2057 5.93016 38.9246 6.23138 38.5334C6.5326 38.1422 6.69195 37.6948 6.70889 37.193C6.72583 36.8351 6.67713 36.5122 6.56278 36.2226C6.4479 35.9336 6.29068 35.6763 6.09163 35.4508C5.89205 35.2253 5.66071 35.0357 5.3976 34.8827C5.1345 34.7292 4.8571 34.6043 4.56382 34.5058C4.27107 34.4079 3.97621 34.3401 3.67869 34.3015C3.38118 34.2628 3.10166 34.2528 2.83856 34.2692C2.43093 34.2951 2.05348 34.3444 1.70515 34.4163C1.35787 34.4883 1.05877 34.608 0.80837 34.7737C0.557442 34.9399 0.360511 35.1596 0.215989 35.4312C0.0719963 35.7033 0 36.0437 0 36.4524V41.8516C0 42.3629 0.135522 42.7261 0.407626 42.9437C0.6792 43.1607 1.07836 43.2692 1.60456 43.2692C1.59609 43.2179 1.58762 43.1417 1.57915 43.039C1.57068 42.9458 1.56433 42.8203 1.5601 42.6626C1.55586 42.5053 1.55374 42.2946 1.55374 42.0305V39.4524C1.68927 39.4778 1.82108 39.5032 1.94866 39.5291C2.05878 39.5461 2.1673 39.5651 2.27371 39.5863C2.37958 39.6075 2.46217 39.6223 2.52199 39.6308C2.56434 39.6483 2.60881 39.661 2.65539 39.6689C2.70198 39.6779 2.75121 39.6906 2.80203 39.707C3.09902 39.7922 3.34995 39.905 3.55323 40.0458C3.75651 40.1866 3.93068 40.3926 4.0752 40.6647C4.32137 41.1501 4.54 41.5546 4.73111 41.878C4.92222 42.201 5.10221 42.4609 5.27214 42.6562C5.44154 42.8521 5.61148 42.9971 5.78141 43.0903C5.95134 43.1835 6.13821 43.2438 6.34203 43.2692C6.5199 43.2947 6.67289 43.2947 6.80047 43.2692C6.92753 43.2438 7.03764 43.21 7.13134 43.1676C7.22504 43.1157 7.30974 43.0522 7.38597 42.976C7.27586 42.8738 7.16945 42.7547 7.06781 42.6181C6.97252 42.4995 6.87088 42.3614 6.76077 42.2036ZM4.57071 38.2396C4.26525 38.4524 3.84492 38.5588 3.31024 38.5588C3.1149 38.5588 2.91585 38.5482 2.71204 38.527C2.50822 38.5053 2.32135 38.482 2.15142 38.4566C1.94761 38.4227 1.74803 38.3841 1.55321 38.3412C1.55321 38.2904 1.55321 38.1866 1.55321 38.0289C1.55321 37.8711 1.5511 37.6991 1.54686 37.5111C1.54263 37.3243 1.54051 37.1395 1.54051 36.9563C1.54051 36.7726 1.54051 36.626 1.54051 36.5159C1.54051 36.4047 1.56168 36.2946 1.60404 36.1834C1.64639 36.0733 1.71626 35.9733 1.81367 35.8838C1.91161 35.7943 2.04342 35.7181 2.20859 35.654C2.37429 35.59 2.58446 35.5455 2.83909 35.5196C3.11966 35.4942 3.40341 35.509 3.69193 35.5646C3.98044 35.6202 4.23508 35.7144 4.45636 35.8462C4.67711 35.978 4.85128 36.157 4.97833 36.3825C5.10591 36.608 5.1525 36.879 5.11862 37.193C5.0588 37.6779 4.87616 38.0273 4.57071 38.2396ZM14.8328 35.4185C14.4252 35.0352 13.9609 34.7462 13.439 34.5503C12.917 34.3544 12.376 34.2565 11.8153 34.2565C11.2552 34.2565 10.7142 34.3544 10.1922 34.5503C9.67027 34.7462 9.20547 35.0352 8.79784 35.4185C8.39021 35.8012 8.0657 36.2761 7.82377 36.8415C7.58184 37.4074 7.46114 38.0654 7.46114 38.8139C7.46114 39.563 7.58237 40.2226 7.82377 40.7923C8.06623 41.3624 8.39074 41.8415 8.79784 42.2285C9.20547 42.6155 9.66974 42.9077 10.1922 43.103C10.7142 43.2984 11.2552 43.3968 11.8153 43.3968C12.376 43.3968 12.917 43.2984 13.439 43.103C13.9609 42.9077 14.4257 42.6155 14.8328 42.2285C15.2404 41.842 15.565 41.3624 15.8069 40.7923C16.0488 40.2226 16.1695 39.563 16.1695 38.8139C16.1695 38.0654 16.0488 37.4079 15.8069 36.8415C15.565 36.2761 15.2404 35.8012 14.8328 35.4185ZM14.2606 40.3714C14.1076 40.8055 13.9038 41.1676 13.6491 41.4572C13.3945 41.7462 13.1081 41.959 12.7894 42.0951C12.4707 42.2311 12.1467 42.2994 11.8153 42.2994C11.4845 42.2994 11.16 42.2311 10.8418 42.0951C10.5231 41.959 10.2367 41.7462 9.98207 41.4572C9.72744 41.1676 9.52363 40.806 9.37116 40.3714C9.21817 39.9378 9.14194 39.4185 9.14194 38.8145C9.14194 38.2189 9.21817 37.7033 9.37116 37.2697C9.52363 36.8356 9.72744 36.4783 9.98207 36.1977C10.2367 35.9172 10.5231 35.7086 10.8418 35.572C11.16 35.4359 11.485 35.3677 11.8153 35.3677C12.1467 35.3677 12.4712 35.4359 12.7894 35.572C13.1076 35.7086 13.3945 35.9166 13.6491 36.1977C13.9038 36.4788 14.1076 36.8356 14.2606 37.2697C14.413 37.7033 14.4898 38.2189 14.4898 38.8145C14.4893 39.4185 14.413 39.9373 14.2606 40.3714ZM22.1669 35.7949C22.294 35.527 22.3914 35.3163 22.4597 35.1633C22.5444 34.9934 22.6127 34.8441 22.6635 34.7165C22.6974 34.6398 22.727 34.563 22.7519 34.4862C22.5063 34.4269 22.2728 34.4095 22.052 34.4349C21.8567 34.4518 21.6592 34.5138 21.4597 34.6207C21.2601 34.7276 21.0923 34.9076 20.9567 35.1628C20.9059 35.2565 20.8419 35.3819 20.7656 35.5392C20.6894 35.6969 20.6063 35.8695 20.5174 36.0564C20.4279 36.2438 20.3347 36.4397 20.2373 36.6435C20.1399 36.8473 20.0441 37.0516 19.9504 37.256C19.7296 37.7245 19.4962 38.2263 19.2505 38.7626C19.0038 38.2263 18.7704 37.7245 18.5502 37.256C18.4565 37.0516 18.3591 36.8478 18.2569 36.6435C18.1552 36.4391 18.0594 36.2433 17.9705 36.0564C17.881 35.8695 17.8006 35.6969 17.7286 35.5392C17.6566 35.3819 17.5952 35.2565 17.5438 35.1628C17.4077 34.9076 17.2405 34.7271 17.0409 34.6207C16.8413 34.5143 16.6438 34.4523 16.4485 34.4349C16.2278 34.4095 15.9985 34.4264 15.7614 34.4862C15.7778 34.563 15.8037 34.6398 15.8376 34.7165C15.8884 34.8441 15.9562 34.9928 16.0414 35.1633C16.1092 35.3163 16.2071 35.5254 16.3342 35.789C16.4617 36.0532 16.5994 36.3465 16.7481 36.6699C16.8964 36.9934 17.0536 37.3296 17.2193 37.6779C17.385 38.0273 17.5438 38.3656 17.6968 38.6932C17.8493 39.0204 17.9917 39.3227 18.1235 39.5996C18.2548 39.8754 18.3591 40.1035 18.4353 40.2825V41.8394C18.4353 42.3502 18.5756 42.716 18.8551 42.9373C19.1351 43.1586 19.5385 43.2692 20.0647 43.2692V43.1925C20.0557 43.1755 20.052 43.1538 20.052 43.1284V42.95C20.052 42.8648 20.0499 42.7584 20.0457 42.6303C20.0414 42.5027 20.0346 42.3497 20.0266 42.1708V40.3455C20.1028 40.1755 20.2087 39.9479 20.3448 39.6625C20.4803 39.3777 20.6269 39.0691 20.7842 38.7372C20.9414 38.4053 21.1029 38.0606 21.268 37.7028C21.4337 37.3454 21.5931 37.0056 21.7455 36.6816C21.8996 36.3592 22.0393 36.0627 22.1669 35.7949ZM29.8949 42.797C29.861 42.7203 29.8266 42.6398 29.7932 42.5546C29.7334 42.4016 29.6297 42.1374 29.4809 41.7631C29.3321 41.3889 29.1606 40.9585 28.9653 40.4736C28.7699 39.9887 28.564 39.4778 28.3475 38.9415C28.131 38.4053 27.925 37.8944 27.7297 37.4095C27.5343 36.924 27.3623 36.4963 27.2141 36.1268C27.0653 35.7562 26.961 35.4947 26.9023 35.3417C26.8086 35.1035 26.709 34.9134 26.6032 34.7732C26.4968 34.6329 26.393 34.5243 26.2908 34.4481C26.1892 34.3713 26.0891 34.3232 25.9917 34.3015C25.8938 34.2803 25.8027 34.2692 25.718 34.2692C25.6328 34.2692 25.5417 34.2803 25.4438 34.3015C25.3464 34.3232 25.2463 34.3719 25.1452 34.4481C25.0431 34.5249 24.9393 34.6334 24.8334 34.7732C24.727 34.914 24.6275 35.1035 24.5343 35.3417C24.475 35.4947 24.3686 35.7562 24.2162 36.1268C24.0632 36.4963 23.8917 36.924 23.7005 37.4095C23.5094 37.8944 23.3056 38.4053 23.0891 38.9415C22.8726 39.4778 22.6667 39.9887 22.4713 40.4736C22.276 40.9585 22.1039 41.3889 21.9557 41.7631C21.8069 42.1374 21.7032 42.4016 21.6439 42.5546C21.601 42.6398 21.565 42.7203 21.5354 42.797C21.5057 42.8738 21.4782 42.9463 21.4528 43.0141C21.4184 43.0908 21.3887 43.1676 21.3633 43.2444C21.6179 43.3121 21.8599 43.3333 22.0896 43.3079C22.2844 43.291 22.4798 43.2311 22.6746 43.129C22.8699 43.0273 23.0272 42.8394 23.1463 42.5673C23.1971 42.4476 23.2903 42.2137 23.4263 41.8648C23.5618 41.5165 23.7233 41.1072 23.9102 40.6398H27.5264C27.7133 41.1078 27.8747 41.5165 28.0103 41.8648C28.1463 42.2137 28.2395 42.4482 28.2903 42.5673C28.4004 42.8394 28.5555 43.0268 28.7551 43.129C28.9542 43.2311 29.1516 43.291 29.3475 43.3079C29.5767 43.3333 29.8186 43.3121 30.0733 43.2444C30.0479 43.1676 30.0177 43.0908 29.9843 43.0141C29.9584 42.9463 29.9288 42.8733 29.8949 42.797ZM24.3946 39.3762C24.5645 38.9505 24.7254 38.5355 24.879 38.131C25.0314 37.7271 25.1717 37.3634 25.2988 37.0395C25.4427 36.6646 25.583 36.3073 25.7186 35.9674C25.8377 36.3078 25.9732 36.6646 26.1262 37.0395C26.2448 37.3629 26.3851 37.7271 26.546 38.131C26.7069 38.5355 26.8726 38.9505 27.0425 39.3762H24.3946ZM34.969 41.9993C34.7949 42.0035 34.6016 42.0056 34.3893 42.0056C33.9309 42.0056 33.564 41.9569 33.2882 41.859C33.0124 41.761 32.8001 41.5975 32.6514 41.3677C32.5026 41.1374 32.4052 40.8357 32.3581 40.4609C32.3115 40.0866 32.2882 39.6228 32.2882 39.0696L32.2628 35.8272C32.2628 34.8314 31.7445 34.3332 30.7096 34.3332C30.7175 34.3851 30.7265 34.4613 30.735 34.5635C30.7429 34.6572 30.7477 34.7832 30.7477 34.9404C30.7477 35.0977 30.7519 35.3047 30.7604 35.5598V38.9934C30.7604 39.8018 30.8112 40.4804 30.9134 41.0294C31.015 41.5784 31.1956 42.0188 31.4539 42.3508C31.7128 42.6827 32.0632 42.9183 32.5042 43.0591C32.9457 43.1999 33.5058 43.2698 34.185 43.2698C34.4645 43.2698 34.7043 43.2295 34.9039 43.1485C35.1035 43.0681 35.2687 42.968 35.4005 42.8489C35.5318 42.7298 35.6297 42.5953 35.6932 42.4466C35.7567 42.2978 35.7885 42.1549 35.7885 42.0188V41.9421C35.6784 41.959 35.5508 41.9717 35.4068 41.9802C35.2893 41.9881 35.1427 41.9945 34.969 41.9993ZM44.1803 35.4185C43.7727 35.0352 43.3084 34.7477 42.7864 34.5566C42.2639 34.3655 41.7229 34.2692 41.1628 34.2692C41.0104 34.2692 40.8256 34.2718 40.6091 34.2761C40.3931 34.2803 40.1956 34.2951 40.0167 34.3205C39.7367 34.3459 39.4947 34.4015 39.2909 34.4862C38.9431 34.6228 38.6842 34.8483 38.5143 35.1628C38.3364 35.4947 38.247 35.95 38.247 36.5286L38.2216 41.1501C38.2216 41.4482 38.2449 41.7076 38.292 41.9288C38.3386 42.1501 38.4084 42.346 38.5016 42.5159C38.671 42.8224 38.9256 43.0437 39.2655 43.1798C39.3751 43.2221 39.49 43.2581 39.6085 43.2883C39.7277 43.318 39.8547 43.3418 39.9913 43.3582C40.1692 43.3751 40.3687 43.3862 40.589 43.391C40.8102 43.3947 40.9924 43.3974 41.1369 43.3974C41.6975 43.3974 42.2401 43.2989 42.7663 43.1035C43.2925 42.9082 43.7595 42.6181 44.1671 42.2354C44.5752 41.8516 44.9013 41.3756 45.148 40.8055C45.3942 40.2353 45.517 39.5763 45.517 38.8272C45.517 38.0781 45.3958 37.4185 45.1539 36.8483C44.9124 36.2782 44.5879 35.8012 44.1803 35.4185ZM43.6012 40.4868C43.4434 40.9294 43.2396 41.2846 42.9903 41.553C42.7388 41.8208 42.4545 42.012 42.1369 42.1274C41.8182 42.2422 41.4942 42.2994 41.1628 42.2994C41.0358 42.2994 40.8934 42.2994 40.7361 42.2994C40.5789 42.2994 40.4323 42.2804 40.2967 42.2422C40.1612 42.2041 40.0463 42.1427 39.9532 42.057C39.86 41.9717 39.8129 41.8447 39.8129 41.6737V35.9929C39.8129 35.8229 39.86 35.6948 39.9532 35.6096C40.0469 35.5249 40.1618 35.4635 40.2967 35.4243C40.4323 35.3862 40.5789 35.3671 40.7361 35.3671C40.8934 35.3671 41.0352 35.3671 41.1628 35.3671C41.4942 35.3671 41.8182 35.4222 42.1369 35.5328C42.455 35.6435 42.7393 35.8325 42.9903 36.1008C43.2401 36.3687 43.4434 36.7245 43.6012 37.167C43.7579 37.6096 43.8367 38.1628 43.8367 38.8267C43.8373 39.4905 43.7579 40.0442 43.6012 40.4868ZM53.2333 42.2036C53.1227 42.0458 53.021 41.8696 52.9279 41.6737C52.8008 41.4185 52.6838 41.1676 52.5774 40.9204C52.4715 40.6737 52.3657 40.446 52.2587 40.2375C52.1528 40.0289 52.0316 39.8505 51.8956 39.7012C51.76 39.5524 51.5949 39.4444 51.399 39.3762C51.9676 39.2057 52.4027 38.9246 52.7039 38.5334C53.0051 38.1422 53.1645 37.6948 53.1814 37.193C53.1978 36.8351 53.1491 36.5122 53.0353 36.2226C52.9204 35.9336 52.7632 35.6763 52.5642 35.4508C52.3646 35.2253 52.1333 35.0357 51.8696 34.8827C51.6065 34.7292 51.3291 34.6043 51.0358 34.5058C50.7431 34.4079 50.4477 34.3401 50.1507 34.3015C49.8537 34.2628 49.5737 34.2528 49.3106 34.2692C48.903 34.2951 48.5255 34.3444 48.1772 34.4163C47.8294 34.4883 47.5303 34.6075 47.2799 34.7732C47.0289 34.9394 46.8315 35.1591 46.688 35.4306C46.5435 35.7033 46.4715 36.0431 46.4715 36.4524V41.8516C46.4715 42.3629 46.607 42.7261 46.8791 42.9437C47.1507 43.1607 47.5498 43.2692 48.0761 43.2692C48.0676 43.2179 48.0591 43.1417 48.0501 43.039C48.0416 42.9458 48.0358 42.8203 48.0316 42.6626C48.0274 42.5053 48.0252 42.2946 48.0252 42.0305V39.4524C48.1608 39.4778 48.292 39.5032 48.4196 39.5291C48.5297 39.5461 48.6383 39.5651 48.7447 39.5863C48.85 39.6075 48.9326 39.6223 48.9929 39.6308C49.0353 39.6483 49.0798 39.661 49.1264 39.6689C49.1729 39.6779 49.2222 39.6906 49.273 39.707C49.57 39.7922 49.8198 39.905 50.0237 40.0458C50.2275 40.1866 50.4011 40.3926 50.5456 40.6647C50.7918 41.1501 51.0104 41.5546 51.201 41.878C51.3921 42.201 51.5721 42.4609 51.742 42.6562C51.9114 42.8521 52.0819 42.9971 52.2513 43.0903C52.4212 43.184 52.6081 43.2438 52.8119 43.2692C52.9898 43.2947 53.1428 43.2947 53.2704 43.2692C53.3969 43.2438 53.5075 43.21 53.6007 43.1676C53.6949 43.1157 53.7796 43.0522 53.8553 42.976C53.7452 42.8738 53.6388 42.7547 53.5372 42.6181C53.4451 42.4995 53.3434 42.3614 53.2333 42.2036ZM51.0427 38.2396C50.7378 38.4524 50.3175 38.5588 49.7823 38.5588C49.5869 38.5588 49.3879 38.5482 49.1841 38.527C48.9802 38.5053 48.7939 38.482 48.6234 38.4566C48.4196 38.4227 48.22 38.3841 48.0252 38.3412C48.0252 38.2904 48.0252 38.1866 48.0252 38.0289C48.0252 37.8711 48.0231 37.6991 48.0189 37.5111C48.0141 37.3243 48.012 37.1395 48.012 36.9563C48.012 36.7726 48.012 36.626 48.012 36.5159C48.012 36.4047 48.0332 36.2946 48.0755 36.1834C48.1179 36.0733 48.1883 35.9733 48.2852 35.8838C48.3836 35.7943 48.5149 35.7181 48.6801 35.654C48.8458 35.59 49.0554 35.5455 49.3101 35.5196C49.5906 35.4942 49.8744 35.509 50.1629 35.5646C50.4514 35.6202 50.706 35.7133 50.9268 35.8452C51.1475 35.977 51.3212 36.1559 51.4482 36.3814C51.5758 36.6069 51.6229 36.878 51.589 37.1919C51.5308 37.6779 51.3487 38.0273 51.0427 38.2396ZM54.7098 35.8139V42.0305C54.7008 42.2856 54.6971 42.4948 54.6971 42.6562C54.6971 42.8182 54.6928 42.9463 54.6849 43.0395C54.6764 43.1417 54.6674 43.2184 54.6595 43.2698C55.1772 43.2698 55.5721 43.1591 55.8432 42.9379C56.1142 42.7166 56.2508 42.3508 56.2508 41.8399L56.2762 35.6233C56.2762 35.3682 56.2783 35.1617 56.2826 35.004C56.2868 34.8467 56.2937 34.7213 56.3022 34.6276C56.3106 34.5254 56.3186 34.4486 56.327 34.3973C55.8014 34.3973 55.4001 34.5058 55.1248 34.7229C54.8474 34.9399 54.7098 35.3036 54.7098 35.8139ZM64.208 34.4545C64.0291 34.5185 63.866 34.617 63.7178 34.7483C63.569 34.8806 63.4478 35.0569 63.3546 35.2782C63.3372 35.3121 63.2927 35.4211 63.2212 35.6038C63.1482 35.7869 63.0592 36.0167 62.9533 36.293C62.8469 36.5694 62.7299 36.8785 62.6034 37.2189C62.4758 37.5593 62.3446 37.9039 62.2085 38.2528C61.8946 39.0786 61.542 40.0019 61.1518 41.0225C60.7527 40.0014 60.3964 39.0781 60.082 38.2528C59.9464 37.9039 59.8146 37.5588 59.687 37.2189C59.56 36.8785 59.443 36.5694 59.3371 36.293C59.2312 36.0172 59.1423 35.7869 59.0698 35.6038C58.9973 35.4206 58.957 35.3121 58.9486 35.2782C58.8554 35.0569 58.7341 34.8806 58.5854 34.7483C58.4372 34.617 58.2731 34.5185 58.0952 34.4545C57.9173 34.3909 57.7241 34.3571 57.516 34.3523C57.308 34.3486 57.1021 34.3634 56.8982 34.3973L60.425 43.2698C60.6283 43.3375 60.8363 43.3587 61.0491 43.3333C61.2186 43.3164 61.4017 43.2565 61.5965 43.1544C61.7913 43.0527 61.9608 42.8653 62.1058 42.5927C62.1736 42.4651 62.2731 42.2502 62.4049 41.9479C62.5362 41.6462 62.6844 41.2909 62.8506 40.8817C63.0163 40.4736 63.1942 40.031 63.3853 39.5546C63.5759 39.0781 63.7654 38.5964 63.9518 38.1115C64.3933 36.9881 64.8724 35.7499 65.3906 34.3962C65.1868 34.3629 64.983 34.3475 64.7797 34.3512C64.577 34.3571 64.3859 34.3909 64.208 34.4545ZM71.9232 41.9421H71.8973C71.8301 41.9505 71.6448 41.9633 71.3441 41.9802C71.0423 41.9971 70.6157 42.0056 70.064 42.0056C69.5966 42.0056 69.1964 41.959 68.8607 41.8648C68.5256 41.7716 68.2541 41.6144 68.046 41.3926C67.838 41.1713 67.6876 40.8717 67.5939 40.4926C67.5002 40.1141 67.4626 39.6398 67.4796 39.0696H69.4023C69.7919 39.0696 70.0942 38.9548 70.306 38.725C70.5177 38.4953 70.6247 38.1887 70.6247 37.8065H67.4928L67.4547 36.2485C67.4547 36.1554 67.4584 36.0723 67.4669 35.9997C67.4753 35.9272 67.4971 35.8706 67.5304 35.8277C67.5558 35.7848 67.5939 35.7509 67.6453 35.726C67.6707 35.7091 67.7003 35.6959 67.7342 35.6874C67.7681 35.6789 67.811 35.671 67.8618 35.662H70.0259C70.2213 35.662 70.414 35.6535 70.6051 35.6361C70.7962 35.6196 70.9767 35.5683 71.1466 35.4831C71.316 35.3814 71.4473 35.2496 71.541 35.0876C71.6427 34.9256 71.6935 34.7006 71.6935 34.4111V34.3338H71.6172H71.5918C71.5235 34.3433 71.3706 34.3555 71.1334 34.3724C70.8962 34.3894 70.505 34.3978 69.9619 34.3978H68.8417C68.6294 34.3978 68.4256 34.4026 68.2308 34.4105C68.0354 34.4195 67.848 34.4317 67.6702 34.4486C67.5346 34.4656 67.4071 34.4889 67.2879 34.5191C67.1688 34.5492 67.055 34.5852 66.9444 34.6276C66.775 34.6953 66.6257 34.7806 66.4986 34.8827C66.3716 34.9844 66.2609 35.121 66.1678 35.2909C65.9899 35.6228 65.8999 36.0781 65.8999 36.6567V39.0696C65.8999 39.9119 65.9878 40.6123 66.1614 41.1697C66.3351 41.7271 66.6024 42.1676 66.9634 42.4905C67.3245 42.814 67.7829 43.0331 68.3388 43.148C68.8946 43.2634 69.559 43.3037 70.3319 43.2692C70.5013 43.2602 70.6898 43.2502 70.8983 43.237C71.1064 43.2248 71.2901 43.1713 71.4516 43.0776C71.6305 42.9924 71.7618 42.8648 71.8465 42.6938C71.9486 42.5323 71.9995 42.3074 71.9995 42.0178V41.9283L71.9232 41.9421ZM34.8642 20.5253C34.5789 20.1182 34.3158 19.6624 34.0744 19.1558C33.7451 18.4962 33.4439 17.8477 33.1696 17.2092C32.8949 16.5719 32.6212 15.9837 32.347 15.4443C32.0728 14.9054 31.7599 14.4432 31.4094 14.0589C31.0585 13.6735 30.6302 13.3934 30.1262 13.2171C31.5958 12.7772 32.7202 12.0514 33.4995 11.0398C34.2782 10.0281 34.6895 8.87354 34.7334 7.57549C34.7774 6.65172 34.6509 5.81635 34.3549 5.0678C34.059 4.32084 33.6524 3.6554 33.1374 3.07202C32.6217 2.48917 32.0235 2.00001 31.3438 1.60404C30.6641 1.20806 29.9452 0.884072 29.1887 0.630497C28.4317 0.377981 27.6693 0.201166 26.9017 0.102701C26.1336 0.00370569 25.4094 -0.0232929 24.7297 0.0201166C24.5391 0.0322925 20.7328 0 20.7328 0C20.7328 0 20.7307 3.51405 24.169 3.32824C24.3464 3.29912 24.5306 3.27318 24.7291 3.25307C25.4528 3.18742 26.1876 3.22607 26.9335 3.369C27.6794 3.51247 28.3374 3.7544 28.9081 4.09479C29.4782 4.43624 29.9282 4.8984 30.2575 5.48072C30.5868 6.06304 30.7069 6.76183 30.6196 7.57549C30.4655 8.82908 29.9944 9.73115 29.2046 10.2806C28.4147 10.8307 27.3289 11.106 25.9467 11.106C25.4417 11.106 24.9266 11.0784 24.4004 11.0234C24.3199 11.0149 21.736 10.8879 21.736 10.8879C21.736 10.8879 21.5211 13.7322 24.1696 13.9525C24.1976 13.9588 24.2236 13.971 24.2522 13.9763C24.3729 13.9985 24.4989 14.0313 24.6307 14.0753C25.3983 14.2955 26.0452 14.5872 26.5719 14.9493C27.0981 15.3124 27.5476 15.8461 27.9208 16.5496C28.5566 17.8032 29.122 18.8482 29.6154 19.6841C30.1087 20.52 30.5746 21.1907 31.014 21.6963C31.4529 22.2029 31.8912 22.5767 32.3306 22.8181C32.7694 23.0605 33.2517 23.214 33.7784 23.2802C34.239 23.3459 34.6339 23.3459 34.9632 23.2802C35.2925 23.214 35.5773 23.1267 35.8187 23.0161C36.0601 22.8842 36.2792 22.7191 36.4767 22.5211C36.1914 22.2574 35.9171 21.9493 35.654 21.5973C35.4126 21.2903 35.149 20.9324 34.8642 20.5253ZM50.5218 19.106C51.0163 18.1711 51.2672 17.0795 51.2672 15.8609C51.2672 14.6428 51.02 13.5517 50.534 12.6179C50.0501 11.6878 49.3921 10.9 48.5769 10.2748C47.7685 9.65492 46.8341 9.18376 45.8008 8.87407C44.7743 8.56756 43.6959 8.41192 42.5959 8.41192C42.427 8.41192 42.2343 8.41298 42.0284 8.41563L39.6393 8.41139L39.6996 8.79043C39.8028 9.4384 40.419 10.6883 42.0273 10.7814H42.5953C43.1972 10.7814 43.7954 10.8646 44.373 11.0287C44.9336 11.1875 45.4424 11.4628 45.8828 11.8482C46.3233 12.233 46.6885 12.7545 46.9696 13.3982C47.2513 14.0462 47.3947 14.8746 47.3947 15.8609C47.3947 16.8477 47.2513 17.6767 46.9696 18.3231C46.6896 18.9673 46.3233 19.4888 45.8828 19.8736C45.4413 20.2595 44.932 20.5391 44.3704 20.7042C43.7933 20.8736 43.1957 20.9599 42.5953 20.9599H42.0278H42.0268C40.805 20.9599 40.2147 21.5121 39.9352 21.9748C39.6324 22.4761 39.6292 22.9811 39.6292 23.0023V23.3294L42.0241 23.3257C42.2195 23.3279 42.3958 23.3289 42.5472 23.3289C43.6467 23.3289 44.7293 23.1696 45.7642 22.8556C46.8055 22.5401 47.7431 22.0658 48.553 21.4459C49.3667 20.8228 50.0295 20.0356 50.5218 19.106Z" fill="white"/>
</svg>
